<svg width="243" height="71" viewBox="0 0 243 71" fill="none" xmlns="http://www.w3.org/2000/svg">
<path d="M23.5117 70.4316C22.8889 70.4316 22.3699 70.2536 21.9547 69.8977C21.5691 69.5715 21.3467 69.1267 21.2874 68.5632C21.2577 67.97 21.4505 67.4955 21.8657 67.1396C22.3105 66.7837 22.8592 66.591 23.5117 66.5613C24.7869 66.5317 25.7804 66.4427 26.4922 66.2944C27.2336 66.1461 27.7971 65.8644 28.1827 65.4492C28.5682 65.034 28.8648 64.4112 29.0724 63.5808H15.9046C13.3541 63.5808 11.3819 63.3287 9.98799 62.8245C8.62376 62.2907 7.73404 61.401 7.31884 60.1554C6.9333 58.8801 6.90364 57.1303 7.22987 54.906L7.49679 53.438H2.33644C1.86192 53.438 1.44672 53.2452 1.09084 52.8597C0.73495 52.4742 0.557007 52.0441 0.557007 51.5696C0.557007 51.0654 0.73495 50.6354 1.09084 50.2795C1.44672 49.894 1.86192 49.7012 2.33644 49.7012H8.03061L8.20856 48.0997C8.44581 46.4093 8.75721 45.0302 9.14276 43.9626C9.55796 42.8949 10.1214 42.0645 10.8332 41.4713C11.5746 40.8485 12.5533 40.4185 13.7693 40.1813C14.9852 39.944 16.5274 39.8254 18.3958 39.8254H26.0473C28.4792 39.8254 30.3625 40.0775 31.697 40.5816C33.0613 41.0858 33.9955 41.9607 34.4996 43.2063C35.0038 44.4222 35.1669 46.1424 34.989 48.3666L34.9 49.7012H40.0604C40.5645 49.7012 40.9797 49.894 41.306 50.2795C41.6618 50.6354 41.8398 51.0654 41.8398 51.5696C41.8398 52.0441 41.6618 52.4742 41.306 52.8597C40.9797 53.2452 40.5645 53.438 40.0604 53.438H34.5886C34.4996 54.565 34.3958 55.6771 34.2772 56.7744C34.1586 57.8718 34.0251 58.9246 33.8768 59.9329H38.8148C39.3189 59.9329 39.7341 60.1109 40.0604 60.4668C40.4162 60.8227 40.5942 61.2527 40.5942 61.7569C40.5942 62.2314 40.4162 62.6614 40.0604 63.0469C39.7341 63.4028 39.3189 63.5808 38.8148 63.5808H33.2985C32.913 65.4492 32.3495 66.8727 31.6081 67.8514C30.8666 68.8301 29.8435 69.4974 28.5385 69.8533C27.2633 70.2388 25.5877 70.4316 23.5117 70.4316ZM1.49121 43.3842C1.04635 42.9987 0.823921 42.539 0.823921 42.0052C0.823921 41.4417 1.01669 40.9672 1.40224 40.5816C2.32161 39.6029 3.27064 38.476 4.24932 37.2007C5.22801 35.9255 6.13255 34.5909 6.96296 33.197C7.82301 31.8031 8.53479 30.4834 9.09827 29.2378C9.33553 28.7336 9.7359 28.4074 10.2994 28.2591C10.8925 28.0811 11.4264 28.1256 11.9009 28.3925C12.3754 28.6595 12.6868 29.0302 12.8351 29.5047C12.9834 29.9792 12.9389 30.4685 12.7016 30.9727C12.5237 31.3583 12.3309 31.7586 12.1233 32.1738C11.9157 32.589 11.6933 33.0042 11.456 33.4194H37.8806C38.3847 33.4194 38.7999 33.6122 39.1262 33.9977C39.4524 34.3536 39.6155 34.7688 39.6155 35.2433C39.6155 35.7179 39.4524 36.1479 39.1262 36.5334C38.7999 36.8893 38.3847 37.0673 37.8806 37.0673H9.27621C8.53479 38.1942 7.7637 39.2767 6.96296 40.3147C6.19187 41.3527 5.42078 42.2869 4.6497 43.1173C4.26415 43.5622 3.75998 43.8143 3.13718 43.8736C2.51438 43.9329 1.96572 43.7698 1.49121 43.3842ZM21.9547 59.9329H29.7397C29.8879 58.9839 30.0214 57.9607 30.14 56.8634C30.2883 55.7661 30.4218 54.6243 30.5404 53.438H22.7999C22.6516 54.6836 22.5033 55.8699 22.355 56.9969C22.2067 58.1238 22.0733 59.1025 21.9547 59.9329ZM16.216 59.9329H17.862C18.0103 59.1322 18.1585 58.1683 18.3068 57.0414C18.4551 55.9144 18.6182 54.7133 18.7962 53.438H11.456L11.2781 54.9505C11.0705 56.3444 11.0556 57.4121 11.2336 58.1535C11.4412 58.8653 11.9305 59.3398 12.7016 59.577C13.5024 59.8143 14.6738 59.9329 16.216 59.9329ZM23.2447 49.7012H30.8518C30.8815 49.464 30.8963 49.2267 30.8963 48.9894C30.9259 48.7522 30.9408 48.5298 30.9408 48.3222C31.0297 46.9579 30.9408 45.9348 30.6739 45.2526C30.4366 44.5409 29.9324 44.0664 29.1613 43.8291C28.4199 43.5622 27.2929 43.4287 25.7804 43.4287H23.8231C23.7934 44.2295 23.7193 45.1785 23.6006 46.2758C23.5117 47.3435 23.393 48.4853 23.2447 49.7012ZM11.9898 49.7012H19.241C19.3893 48.4853 19.5228 47.3286 19.6414 46.2313C19.7897 45.1044 19.8935 44.1701 19.9528 43.4287H18.0844C16.5719 43.4287 15.4152 43.5325 14.6145 43.7401C13.8138 43.9477 13.2503 44.3926 12.924 45.0747C12.5978 45.7272 12.3457 46.7355 12.1678 48.0997C12.1381 48.337 12.1085 48.5891 12.0788 48.856C12.0492 49.1229 12.0195 49.4046 11.9898 49.7012Z" fill="white"/>
<path d="M63.1485 66.7837C60.7166 66.7837 58.6999 66.6206 57.0984 66.2944C55.5266 65.9682 54.281 65.3899 53.3616 64.5595C52.4422 63.7291 51.7898 62.5576 51.4042 61.0451C51.0187 59.5029 50.8259 57.5307 50.8259 55.1285V43.3842C50.8259 40.982 51.0187 39.0246 51.4042 37.5121C51.7898 35.9699 52.4422 34.7837 53.3616 33.9533C54.281 33.1229 55.5266 32.5445 57.0984 32.2183C58.6999 31.8921 60.7166 31.729 63.1485 31.729H66.5739C69.0058 31.729 71.0076 31.8921 72.5794 32.2183C74.1809 32.5445 75.4414 33.1229 76.3607 33.9533C77.2801 34.7837 77.9177 35.9699 78.2736 37.5121C78.6592 39.0246 78.8519 40.982 78.8519 43.3842V55.1285C78.8519 57.5307 78.6592 59.5029 78.2736 61.0451C77.9177 62.5576 77.2801 63.7291 76.3607 64.5595C75.4414 65.3899 74.1809 65.9682 72.5794 66.2944C71.0076 66.6206 69.0058 66.7837 66.5739 66.7837H63.1485ZM63.1485 62.958H66.5739C68.2643 62.958 69.6434 62.869 70.711 62.6911C71.7787 62.4835 72.5943 62.1127 73.1578 61.5789C73.7212 61.0154 74.1068 60.2295 74.3144 59.2212C74.5516 58.1832 74.6703 56.8189 74.6703 55.1285V50.8134H55.0076V55.1285C55.0076 56.8189 55.1114 58.1832 55.319 59.2212C55.5562 60.2295 55.9566 61.0154 56.5201 61.5789C57.1132 62.1127 57.9436 62.4835 59.0113 62.6911C60.0789 62.869 61.458 62.958 63.1485 62.958ZM55.0076 47.0321H74.6703V43.3842C74.6703 41.6938 74.5516 40.3444 74.3144 39.336C74.1068 38.298 73.7212 37.5121 73.1578 36.9783C72.5943 36.4148 71.7787 36.0441 70.711 35.8661C69.6434 35.6585 68.2643 35.5547 66.5739 35.5547H63.1485C61.458 35.5547 60.0789 35.6585 59.0113 35.8661C57.9436 36.0441 57.1132 36.4148 56.5201 36.9783C55.9566 37.5121 55.5562 38.298 55.319 39.336C55.1114 40.3444 55.0076 41.6938 55.0076 43.3842V47.0321Z" fill="white"/>
<path d="M109.858 65.2712C109.295 65.3009 108.806 65.1378 108.39 64.7819C108.005 64.426 107.782 63.9663 107.723 63.4028C107.694 62.8393 107.842 62.35 108.168 61.9348C108.524 61.5196 108.984 61.2972 109.547 61.2675C112.898 61.0006 115.479 60.0367 117.288 58.3759C119.097 56.7151 120.001 54.4464 120.001 51.5696C120.001 49.4046 119.319 47.6104 117.955 46.1868C116.62 44.7633 114.856 43.7846 112.661 43.2508C111.416 46.9283 109.844 50.0868 107.946 52.7262C108.301 53.0525 108.657 53.3639 109.013 53.6604C109.369 53.957 109.71 54.2239 110.036 54.4612C110.481 54.7578 110.748 55.1878 110.837 55.7513C110.956 56.3148 110.852 56.8189 110.526 57.2638C110.2 57.7086 109.755 57.9756 109.191 58.0645C108.657 58.1535 108.168 58.0497 107.723 57.7531C107.338 57.4566 106.952 57.1452 106.567 56.8189C106.181 56.4927 105.795 56.1516 105.41 55.7958C103.66 57.5455 101.732 59.0136 99.6268 60.1999C97.877 61.1489 96.2459 61.6086 94.7333 61.5789C93.2208 61.5196 92.0049 60.9709 91.0855 59.9329C90.1958 58.8653 89.7509 57.3528 89.7509 55.3954C89.7509 53.0228 90.2996 50.7985 91.3969 48.7225C92.4942 46.6169 93.9771 44.8226 95.8455 43.3398C95.2523 42.2721 94.6889 41.2044 94.155 40.1368C93.6509 39.0691 93.1912 38.0311 92.776 37.0228C92.5684 36.5186 92.598 36.0144 92.8649 35.5103C93.1319 35.0061 93.5174 34.665 94.0216 34.4871C94.5554 34.3091 95.0744 34.3536 95.5786 34.6205C96.0827 34.8578 96.409 35.2433 96.5573 35.7772C96.8538 36.6372 97.2097 37.5418 97.6249 38.4908C98.0698 39.4102 98.5591 40.3444 99.0929 41.2934C100.487 40.5816 101.985 40.033 103.586 39.6474C105.217 39.2322 106.908 39.0246 108.657 39.0246C108.835 39.0246 109.013 39.0395 109.191 39.0691C109.369 39.0691 109.547 39.0691 109.725 39.0691C109.933 38.2387 110.125 37.3787 110.303 36.4889C110.511 35.5992 110.689 34.6947 110.837 33.7753C110.926 33.2415 111.193 32.8115 111.638 32.4852C112.083 32.159 112.587 32.0404 113.15 32.1293C113.684 32.2183 114.114 32.5001 114.441 32.9746C114.767 33.4194 114.885 33.9088 114.796 34.4426C114.648 35.362 114.485 36.2517 114.307 37.1117C114.129 37.9421 113.936 38.7725 113.729 39.6029C116.872 40.3444 119.364 41.7827 121.202 43.9181C123.071 46.0237 124.005 48.5742 124.005 51.5696C124.005 55.514 122.745 58.7022 120.224 61.1341C117.732 63.5363 114.277 64.9153 109.858 65.2712ZM97.5359 56.9079C99.4637 55.8402 101.169 54.5057 102.652 52.9042C101.821 51.9552 100.991 50.9468 100.161 49.8792C99.3599 48.8115 98.5888 47.7142 97.8473 46.5872C96.4831 47.7735 95.4303 49.1377 94.6889 50.6799C93.9771 52.2221 93.6212 53.7939 93.6212 55.3954C93.6212 56.4037 93.9474 57.0858 94.5999 57.4417C95.282 57.768 96.2607 57.59 97.5359 56.9079ZM105.099 49.8347C106.463 47.7587 107.619 45.4158 108.568 42.8059C107.115 42.8059 105.751 42.9542 104.476 43.2508C103.23 43.5474 102.073 43.9477 101.006 44.4519C102.34 46.4093 103.705 48.2035 105.099 49.8347Z" fill="white"/>
<path d="M150.252 68.1628C146.811 68.1628 144.187 67.2731 142.378 65.4937C140.568 63.7142 139.664 61.312 139.664 58.287C139.664 57.5455 139.827 56.1665 140.153 54.1498C139.234 54.0015 138.329 53.8384 137.44 53.6604C136.58 53.4528 135.809 53.2601 135.126 53.0821C134.593 52.9338 134.192 52.6076 133.925 52.1034C133.688 51.5993 133.644 51.0803 133.792 50.5464C133.97 50.0423 134.296 49.6567 134.771 49.3898C135.275 49.1229 135.794 49.0636 136.328 49.2119C136.921 49.3898 137.603 49.5678 138.374 49.7457C139.175 49.9236 140.005 50.0868 140.865 50.235C141.043 49.197 141.236 48.1294 141.443 47.0321C141.651 45.9051 141.859 44.793 142.066 43.6956C141.236 43.5177 140.435 43.3398 139.664 43.1618C138.893 42.9839 138.226 42.8208 137.662 42.6725C137.128 42.5242 136.728 42.2128 136.461 41.7383C136.194 41.2341 136.135 40.7151 136.283 40.1813C136.431 39.6474 136.743 39.2471 137.217 38.9801C137.692 38.7132 138.196 38.6539 138.73 38.8022C139.234 38.9208 139.842 39.0691 140.554 39.2471C141.265 39.425 142.007 39.5881 142.778 39.7364C143.075 38.1646 143.327 36.7262 143.534 35.4213C143.742 34.0867 143.86 33.0191 143.89 32.2183C143.92 31.6548 144.142 31.1951 144.557 30.8393C144.973 30.4537 145.447 30.2758 145.981 30.3054C146.544 30.3351 147.004 30.5575 147.36 30.9727C147.746 31.3879 147.923 31.8773 147.894 32.4407C147.864 33.3008 147.731 34.4426 147.493 35.8661C147.286 37.26 147.034 38.7874 146.737 40.4482C147.301 40.5668 147.834 40.6558 148.339 40.7151C148.872 40.7744 149.332 40.8337 149.718 40.893C150.281 40.9227 150.726 41.1599 151.052 41.6048C151.379 42.0497 151.512 42.5538 151.453 43.1173C151.393 43.6808 151.141 44.1257 150.696 44.4519C150.281 44.7781 149.792 44.9116 149.228 44.8523C148.754 44.793 148.235 44.7336 147.671 44.6743C147.138 44.5854 146.574 44.4964 145.981 44.4074C145.773 45.5047 145.566 46.602 145.358 47.6994C145.151 48.767 144.943 49.805 144.735 50.8134C145.477 50.9023 146.174 50.9765 146.826 51.0358C147.479 51.0654 148.087 51.1099 148.65 51.1692C149.214 51.1989 149.673 51.4213 150.029 51.8365C150.415 52.2221 150.593 52.6966 150.563 53.2601C150.533 53.8236 150.311 54.2981 149.896 54.6836C149.48 55.0395 148.991 55.2026 148.428 55.173C147.775 55.1136 147.063 55.0543 146.292 54.995C145.551 54.9357 144.795 54.8467 144.024 54.7281C143.905 55.5288 143.801 56.2406 143.712 56.8634C143.623 57.4566 143.579 57.9311 143.579 58.287C143.579 62.2017 145.803 64.1591 150.252 64.1591C151.942 64.1591 153.366 63.7884 154.522 63.0469C155.708 62.3055 156.524 61.3417 156.969 60.1554C157.473 58.8504 157.443 57.501 156.88 56.1072C156.346 54.6836 155.338 53.3342 153.855 52.059C153.44 51.6734 153.202 51.2137 153.143 50.6799C153.113 50.1164 153.277 49.6271 153.632 49.2119C154.018 48.7967 154.478 48.5742 155.012 48.5446C155.575 48.4853 156.064 48.6336 156.48 48.9894C158.585 50.7985 160.009 52.8152 160.75 55.0395C161.521 57.2638 161.521 59.4288 160.75 61.5344C160.009 63.5511 158.704 65.1526 156.835 66.3389C154.997 67.5548 152.802 68.1628 150.252 68.1628Z" fill="white"/>
<path d="M183.304 67.7179C182.889 67.3324 182.667 66.8431 182.637 66.2499C182.637 65.6568 182.83 65.1674 183.215 64.7819C184.639 63.4177 185.899 61.6975 186.997 59.6215C188.124 57.5455 188.999 55.2174 189.621 52.6373C190.244 50.0274 190.556 47.299 190.556 44.4519C190.556 41.9903 190.17 40.1664 189.399 38.9801C188.658 37.7939 187.427 37.2007 185.707 37.2007C184.52 37.2007 183.364 37.7642 182.237 38.8912C181.11 40.0181 180.235 41.6048 179.612 43.6511C179.019 45.6975 178.856 48.0997 179.123 50.8578C179.182 51.362 179.034 51.8069 178.678 52.1924C178.352 52.578 177.937 52.8004 177.432 52.8597C176.958 52.8894 176.513 52.7559 176.098 52.4593C175.683 52.1331 175.445 51.7327 175.386 51.2582C175.178 49.8347 175.045 48.2184 174.986 46.4093C174.956 44.6002 174.956 42.7763 174.986 40.9375C175.045 39.0691 175.119 37.3193 175.208 35.6882C175.327 34.0571 175.445 32.7077 175.564 31.64C175.623 31.1062 175.861 30.6761 176.276 30.3499C176.721 30.0237 177.21 29.8902 177.744 29.9495C178.278 29.9792 178.708 30.2165 179.034 30.6613C179.39 31.0765 179.523 31.551 179.434 32.0849C179.345 32.8263 179.241 33.7457 179.123 34.843C179.004 35.9403 178.915 37.0524 178.856 38.1794C179.716 36.6372 180.754 35.4213 181.97 34.5316C183.215 33.6122 184.52 33.1525 185.885 33.1525C188.702 33.1525 190.852 34.1164 192.335 36.0441C193.848 37.9421 194.604 40.7447 194.604 44.4519C194.604 47.4473 194.292 50.3685 193.67 53.2156C193.047 56.0627 192.113 58.717 190.867 61.1785C189.621 63.6104 188.079 65.7606 186.241 67.629C185.855 68.0145 185.366 68.2221 184.773 68.2518C184.209 68.2814 183.72 68.1035 183.304 67.7179Z" fill="white"/>
<path d="M209.729 66.3389C209.195 66.1313 208.824 65.7606 208.617 65.2267C208.439 64.6929 208.469 64.1739 208.706 63.6697C209.21 62.5724 209.848 61.1934 210.619 59.5326C211.39 57.8718 212.25 56.0478 213.199 54.0608C214.148 52.0738 215.127 50.0571 216.135 48.0108C217.143 45.9348 218.122 43.9329 219.071 42.0052C220.02 40.0775 220.88 38.3277 221.651 36.7559C222.422 35.184 223.06 33.9384 223.564 33.0191C223.801 32.5149 224.202 32.2035 224.765 32.0849C225.329 31.9366 225.848 31.9959 226.322 32.2628C226.797 32.5594 227.093 32.9746 227.212 33.5084C227.36 34.0126 227.301 34.5167 227.034 35.0209C226.619 35.792 226.04 36.8745 225.299 38.2684C224.587 39.6623 223.787 41.2489 222.897 43.0283C222.007 44.8078 221.088 46.6614 220.139 48.5891C221.503 47.907 222.867 47.5659 224.231 47.5659C226.96 47.5659 228.799 48.3666 229.748 49.9681C230.726 51.5696 230.8 53.8384 229.97 56.7744C229.436 58.6725 229.407 59.9923 229.881 60.7337C230.356 61.4455 231.23 61.8013 232.506 61.8013C233.277 61.8013 234.018 61.6086 234.73 61.223C235.471 60.8375 236.183 60.1554 236.865 59.1767C237.577 58.1683 238.289 56.7448 239.001 54.906C239.208 54.4019 239.564 54.0312 240.068 53.7939C240.572 53.5566 241.077 53.5418 241.581 53.7494C242.115 53.957 242.485 54.3129 242.693 54.8171C242.93 55.3212 242.945 55.8254 242.737 56.3296C241.581 59.4733 240.172 61.8458 238.511 63.4473C236.88 65.0191 234.878 65.8051 232.506 65.8051C230.756 65.8051 229.288 65.4492 228.102 64.7374C226.915 63.996 226.129 62.8838 225.744 61.401C225.358 59.8885 225.477 57.9904 226.1 55.7068C226.574 54.0756 226.648 52.9338 226.322 52.2814C225.996 51.5993 225.225 51.2582 224.009 51.2582C222.941 51.2582 221.933 51.4213 220.984 51.7476C220.035 52.0738 219.13 52.7114 218.27 53.6604C217.41 54.6095 216.55 56.0182 215.69 57.8866C215.601 58.0942 215.394 58.539 215.067 59.2212C214.771 59.9033 214.43 60.6595 214.044 61.4899C213.688 62.3203 213.347 63.0766 213.021 63.7587C212.724 64.4408 212.532 64.8857 212.443 65.0933C212.235 65.6271 211.864 66.0127 211.331 66.2499C210.826 66.5168 210.292 66.5465 209.729 66.3389Z" fill="white"/>
<path d="M9.50228 16.2478C8.53476 16.2478 7.73243 16.1829 7.09528 16.0531C6.46993 15.9233 5.97438 15.6932 5.60861 15.3629C5.24284 15.0325 4.98326 14.5664 4.82987 13.9647C4.67649 13.3511 4.59979 12.5665 4.59979 11.6108V6.93836C4.59979 5.98264 4.67649 5.20391 4.82987 4.60216C4.98326 3.98861 5.24284 3.51665 5.60861 3.18628C5.97438 2.85591 6.46993 2.62582 7.09528 2.49604C7.73243 2.36625 8.53476 2.30135 9.50228 2.30135H10.8651C11.8326 2.30135 12.629 2.36625 13.2544 2.49604C13.8915 2.62582 14.393 2.85591 14.7587 3.18628C15.1245 3.51665 15.3782 3.98861 15.5198 4.60216C15.6732 5.20391 15.7499 5.98264 15.7499 6.93836V11.6108C15.7499 12.5665 15.6732 13.3511 15.5198 13.9647C15.3782 14.5664 15.1245 15.0325 14.7587 15.3629C14.393 15.6932 13.8915 15.9233 13.2544 16.0531C12.629 16.1829 11.8326 16.2478 10.8651 16.2478H9.50228ZM9.50228 14.7257H10.8651C11.5376 14.7257 12.0863 14.6903 12.511 14.6195C12.9358 14.5369 13.2603 14.3894 13.4844 14.1771C13.7086 13.9529 13.862 13.6402 13.9446 13.239C14.039 12.8261 14.0862 12.2833 14.0862 11.6108V9.89401H6.26345V11.6108C6.26345 12.2833 6.30475 12.8261 6.38734 13.239C6.48173 13.6402 6.64102 13.9529 6.8652 14.1771C7.10118 14.3894 7.43155 14.5369 7.85632 14.6195C8.28108 14.6903 8.82974 14.7257 9.50228 14.7257ZM6.26345 8.38964H14.0862V6.93836C14.0862 6.26582 14.039 5.72896 13.9446 5.3278C13.862 4.91483 13.7086 4.60216 13.4844 4.38978C13.2603 4.1656 12.9358 4.01811 12.511 3.94731C12.0863 3.86472 11.5376 3.82342 10.8651 3.82342H9.50228C8.82974 3.82342 8.28108 3.86472 7.85632 3.94731C7.43155 4.01811 7.10118 4.1656 6.8652 4.38978C6.64102 4.60216 6.48173 4.91483 6.38734 5.3278C6.30475 5.72896 6.26345 6.26582 6.26345 6.93836V8.38964Z" fill="white"/>
<path d="M31.1122 15.5044C30.9352 15.6578 30.7287 15.7286 30.4927 15.7168C30.2567 15.6932 30.062 15.5929 29.9087 15.4159C29.5547 15.003 29.1122 14.5428 28.5813 14.0355C28.0503 13.5163 27.4958 13.0148 26.9176 12.5311C26.3513 12.0355 25.8262 11.6226 25.3424 11.2922C25.1891 11.186 25.0947 11.0326 25.0593 10.832C25.0357 10.6197 25.0829 10.4368 25.2009 10.2834C25.3306 10.1182 25.4958 10.0179 25.6964 9.9825C25.9088 9.94711 26.1094 9.9943 26.2982 10.1241C26.5813 10.3129 26.894 10.543 27.2362 10.8143C27.5784 11.0739 27.9264 11.3512 28.2804 11.6462C28.7642 11.186 29.242 10.6845 29.714 10.1418C30.1977 9.58724 30.6225 9.07398 30.9883 8.60202C31.2596 8.23625 31.3422 7.94718 31.236 7.73479C31.1417 7.52241 30.8349 7.42212 30.3157 7.43392C29.8792 7.44572 29.419 7.45752 28.9352 7.46932C28.4515 7.48112 27.9854 7.49291 27.5371 7.50471C27.0887 7.51651 26.6993 7.52831 26.369 7.54011C25.72 8.34244 25.018 9.12118 24.2628 9.87631C23.5077 10.6314 22.7644 11.2922 22.0328 11.8585C21.844 12.0001 21.6376 12.0709 21.4134 12.0709C21.1892 12.0709 20.9945 11.9765 20.8293 11.7878C20.6995 11.6226 20.6464 11.4279 20.67 11.2037C20.6936 10.9795 20.7939 10.8084 20.9709 10.6904C21.5609 10.2775 22.1626 9.78192 22.7762 9.20377C23.4015 8.61382 23.9974 7.98847 24.5637 7.32773C25.1419 6.65518 25.661 5.98264 26.1212 5.3101C26.5813 4.63755 26.953 4.01221 27.2362 3.43406C27.3306 3.23347 27.484 3.10368 27.6963 3.04469C27.9205 2.98569 28.127 3.00929 28.3158 3.11548C28.5164 3.20988 28.6462 3.35146 28.7052 3.54025C28.7642 3.72903 28.7465 3.92372 28.6521 4.1243C28.4987 4.41927 28.3217 4.73195 28.1211 5.06232C27.9323 5.38089 27.7199 5.71126 27.484 6.05344C27.9677 6.04164 28.4751 6.03574 29.006 6.03574C29.537 6.02394 30.0384 6.01214 30.5104 6.00034C31.3481 5.97674 31.9735 6.13013 32.3864 6.4605C32.8112 6.77907 33.0177 7.19794 33.0059 7.7171C33.0059 8.22445 32.7817 8.76131 32.3334 9.32766C31.8968 9.87041 31.4307 10.425 30.9352 10.9913C30.4396 11.5459 29.9323 12.0827 29.4131 12.6019C29.7553 12.9087 30.0797 13.2095 30.3865 13.5045C30.6933 13.7995 30.9588 14.065 31.183 14.3009C31.3481 14.4779 31.4189 14.6844 31.3953 14.9204C31.3835 15.1446 31.2891 15.3393 31.1122 15.5044Z" fill="white"/>
<path d="M39.8552 16C39.6428 16.0472 39.4482 16.0059 39.2712 15.8761C39.0942 15.7463 38.9821 15.5752 38.9349 15.3629C38.8287 14.8201 38.752 14.1594 38.7048 13.3806C38.6576 12.5901 38.634 11.7406 38.634 10.832C38.634 9.92351 38.6576 9.00909 38.7048 8.08876C38.752 7.16844 38.8228 6.30121 38.9172 5.48708C39.0116 4.67295 39.1237 3.97091 39.2535 3.38096C39.3007 3.15678 39.4187 2.98569 39.6074 2.8677C39.7962 2.74971 39.9968 2.72022 40.2092 2.77921C40.4334 2.82641 40.5986 2.9444 40.7048 3.13318C40.8227 3.32197 40.8581 3.52845 40.8109 3.75263C40.6576 4.35438 40.5337 5.03872 40.4393 5.80566C40.3449 6.57259 40.2741 7.38082 40.2269 8.23035C40.1915 9.07988 40.1738 9.92351 40.1738 10.7612C40.1856 11.5872 40.2151 12.3777 40.2623 13.1328C40.3213 13.8762 40.4039 14.5251 40.5101 15.0797C40.5455 15.2921 40.4983 15.4926 40.3685 15.6814C40.2505 15.8584 40.0794 15.9646 39.8552 16ZM47.1647 14.9735C45.6426 14.9735 44.5158 14.6903 43.7843 14.124C43.0646 13.5576 42.6575 12.7907 42.5631 11.8231C42.5395 11.599 42.5926 11.4043 42.7224 11.2391C42.864 11.0621 43.0469 10.9677 43.271 10.9559C43.4952 10.9323 43.6899 10.9913 43.8551 11.1329C44.0321 11.2627 44.1324 11.4397 44.156 11.6639C44.2032 12.2538 44.4686 12.6963 44.9524 12.9913C45.4362 13.2862 46.1795 13.4337 47.1824 13.4337C47.5954 13.4337 48.0968 13.4042 48.6868 13.3452C49.2767 13.2744 49.8726 13.1623 50.4743 13.0089C50.6867 12.95 50.8814 12.9854 51.0584 13.1151C51.2472 13.2449 51.3651 13.416 51.4123 13.6284C51.4713 13.8526 51.4359 14.0532 51.3062 14.2301C51.1882 14.4071 51.0171 14.5251 50.7929 14.5841C50.1794 14.7375 49.5599 14.8437 48.9346 14.9027C48.321 14.9499 47.7311 14.9735 47.1647 14.9735ZM43.802 6.31891C43.5778 6.36611 43.3713 6.33071 43.1825 6.21272C43.0056 6.08293 42.8935 5.90595 42.8463 5.68177C42.8109 5.46939 42.8522 5.2747 42.9702 5.09772C43.0999 4.90893 43.271 4.79094 43.4834 4.74375C43.9318 4.64935 44.445 4.58446 45.0232 4.54906C45.6131 4.50187 46.2149 4.47827 46.8284 4.47827C47.4538 4.46647 48.0555 4.47827 48.6337 4.51367C49.2118 4.54906 49.731 4.60806 50.1912 4.69065C50.4035 4.73785 50.5687 4.84994 50.6867 5.02692C50.8165 5.20391 50.8637 5.40449 50.8283 5.62867C50.7811 5.84105 50.669 6.01214 50.492 6.14193C50.315 6.27172 50.1145 6.31301 49.8903 6.26582C47.8608 5.90005 45.8314 5.91775 43.802 6.31891Z" fill="white"/>
<path d="M64.8278 17.6283C64.5682 17.6401 64.35 17.5752 64.173 17.4336C64.0078 17.3038 63.9134 17.1209 63.8898 16.8849C63.878 16.6489 63.937 16.4307 64.0668 16.2301C64.2084 16.0413 64.4208 15.941 64.7039 15.9292C65.1169 15.9056 65.4178 15.8643 65.6065 15.8053C65.8071 15.7345 65.9369 15.6283 65.9959 15.4867C66.0549 15.3334 66.0844 15.1269 66.0844 14.8673V10.9028H54.7043C54.5273 10.9028 54.3739 10.832 54.2441 10.6904C54.1143 10.5489 54.0494 10.3837 54.0494 10.1949C54.0494 10.0179 54.1143 9.85861 54.2441 9.71703C54.3739 9.57544 54.5273 9.50464 54.7043 9.50464H56.6334C56.4918 9.41025 56.3974 9.26866 56.3502 9.07988C56.3148 8.90289 56.3502 8.73771 56.4564 8.58432C56.5626 8.41914 56.7278 8.32474 56.952 8.30115C57.8841 8.17136 58.651 7.97667 59.2528 7.7171C59.8545 7.45752 60.3206 7.10945 60.651 6.67288H57.6068C57.418 6.67288 57.2646 6.61389 57.1467 6.4959C57.0287 6.36611 56.9697 6.20682 56.9697 6.01804C56.9697 5.84105 57.0287 5.69357 57.1467 5.57558C57.2646 5.44579 57.418 5.38089 57.6068 5.38089H61.235C61.2586 5.2511 61.2822 5.12131 61.3058 4.99152C61.3294 4.86174 61.3471 4.73195 61.3589 4.60216C61.3707 4.33078 61.5005 4.142 61.7483 4.0358H57.5891C57.0818 4.0358 56.7278 4.1184 56.5272 4.28358C56.3384 4.43697 56.244 4.72015 56.244 5.13311V5.82335C56.244 6.04754 56.1673 6.22452 56.014 6.35431C55.8606 6.4841 55.6777 6.54899 55.4653 6.54899C55.2529 6.54899 55.07 6.4841 54.9166 6.35431C54.7751 6.21272 54.7043 6.02984 54.7043 5.80566V5.04462C54.7043 4.20689 54.9166 3.61104 55.3414 3.25707C55.7662 2.8913 56.4859 2.70842 57.5006 2.70842H61.3235V1.7527C61.3235 1.51672 61.4061 1.32203 61.5713 1.16865C61.7365 1.00346 61.9312 0.920868 62.1553 0.920868C62.3913 0.920868 62.5919 1.00346 62.7571 1.16865C62.9223 1.32203 63.0049 1.51672 63.0049 1.7527V2.70842H66.8985C67.9251 2.70842 68.6448 2.8913 69.0578 3.25707C69.4825 3.61104 69.6949 4.20689 69.6949 5.04462V5.80566C69.6949 6.02984 69.6182 6.21272 69.4648 6.35431C69.3232 6.4841 69.1463 6.54899 68.9339 6.54899C68.7215 6.54899 68.5386 6.4841 68.3852 6.35431C68.2436 6.22452 68.1728 6.04754 68.1728 5.82335V5.13311C68.1728 4.72015 68.0784 4.43697 67.8897 4.28358C67.7009 4.1184 67.3469 4.0358 66.8277 4.0358H62.4916C62.7512 4.1538 62.8633 4.37208 62.8279 4.69065C62.8161 4.80864 62.8043 4.92663 62.7925 5.04462C62.7807 5.15081 62.763 5.2629 62.7394 5.38089H66.8277C67.0283 5.38089 67.1817 5.44579 67.2879 5.57558C67.4059 5.69357 67.4649 5.84105 67.4649 6.01804C67.4649 6.20682 67.4059 6.36611 67.2879 6.4959C67.1817 6.61389 67.0283 6.67288 66.8277 6.67288H63.6951C64.1671 7.10945 64.7216 7.46342 65.3588 7.73479C65.9959 7.99437 66.6921 8.18316 67.4472 8.30115C67.6596 8.33654 67.813 8.43684 67.9074 8.60202C68.0135 8.75541 68.0371 8.93239 67.9781 9.13298C67.9192 9.29816 67.8248 9.42205 67.695 9.50464H69.6772C69.866 9.50464 70.0253 9.57544 70.1551 9.71703C70.2849 9.85861 70.3497 10.0179 70.3497 10.1949C70.3497 10.3837 70.2849 10.5489 70.1551 10.6904C70.0253 10.832 69.866 10.9028 69.6772 10.9028H67.6596V15.2213C67.6596 16.0944 67.4472 16.7138 67.0224 17.0796C66.6095 17.4454 65.8779 17.6283 64.8278 17.6283ZM59.359 16.1062C58.4151 16.1062 57.772 15.941 57.4298 15.6106C57.0877 15.2803 56.9166 14.7198 56.9166 13.9293C56.9166 13.1269 57.0877 12.5606 57.4298 12.2302C57.772 11.8998 58.4151 11.7347 59.359 11.7347H61.0226C61.9784 11.7347 62.6273 11.8998 62.9695 12.2302C63.3116 12.5606 63.4827 13.1269 63.4827 13.9293C63.4827 14.7198 63.3116 15.2803 62.9695 15.6106C62.6273 15.941 61.9784 16.1062 61.0226 16.1062H59.359ZM57.8369 9.50464H66.4738C65.6007 9.30406 64.7983 8.99139 64.0668 8.56662C63.347 8.14186 62.7276 7.56961 62.2084 6.84987C61.8427 7.51061 61.3058 8.06517 60.5979 8.51353C59.8899 8.95009 58.9696 9.28046 57.8369 9.50464ZM59.4475 14.708H60.9341C61.3235 14.708 61.5831 14.6549 61.7129 14.5487C61.8545 14.4425 61.9253 14.236 61.9253 13.9293C61.9253 13.6107 61.8545 13.4042 61.7129 13.3098C61.5831 13.2036 61.3235 13.1505 60.9341 13.1505H59.4475C59.0581 13.1505 58.7926 13.2036 58.651 13.3098C58.5212 13.4042 58.4564 13.6107 58.4564 13.9293C58.4564 14.236 58.5212 14.4425 58.651 14.5487C58.7926 14.6549 59.0581 14.708 59.4475 14.708Z" fill="white"/>
<path d="M79.0751 16.6194C78.9099 16.4661 78.8214 16.2714 78.8096 16.0354C78.8096 15.7994 78.8863 15.6047 79.0397 15.4513C79.6061 14.9086 80.1075 14.2242 80.5441 13.3983C80.9925 12.5724 81.3405 11.6462 81.5883 10.6197C81.8361 9.58134 81.96 8.49583 81.96 7.36312C81.96 6.38381 81.8066 5.65817 81.4998 5.18621C81.2048 4.71425 80.7152 4.47827 80.0308 4.47827C79.5589 4.47827 79.0987 4.70245 78.6504 5.15081C78.202 5.59917 77.8539 6.23042 77.6061 7.04455C77.3702 7.85868 77.3053 8.8144 77.4115 9.91171C77.4351 10.1123 77.3761 10.2893 77.2345 10.4427C77.1047 10.5961 76.9395 10.6845 76.7389 10.7081C76.5501 10.7199 76.3731 10.6668 76.208 10.5489C76.0428 10.4191 75.9484 10.2598 75.9248 10.071C75.8422 9.50464 75.7891 8.8616 75.7655 8.14186C75.7537 7.42212 75.7537 6.69648 75.7655 5.96494C75.7891 5.22161 75.8186 4.52546 75.854 3.87652C75.9012 3.22757 75.9484 2.69072 75.9956 2.26595C76.0192 2.05357 76.1136 1.88249 76.2787 1.7527C76.4557 1.62291 76.6504 1.56981 76.8628 1.59341C77.0752 1.60521 77.2463 1.6996 77.3761 1.87659C77.5176 2.04177 77.5707 2.23056 77.5353 2.44294C77.5 2.73791 77.4586 3.10368 77.4115 3.54025C77.3643 3.97681 77.3289 4.41927 77.3053 4.86764C77.6474 4.25409 78.0604 3.77033 78.5442 3.41636C79.0397 3.05059 79.5589 2.8677 80.1016 2.8677C81.2225 2.8677 82.078 3.25117 82.6679 4.01811C83.2697 4.77324 83.5705 5.88825 83.5705 7.36312C83.5705 8.55482 83.4466 9.71703 83.1989 10.8497C82.9511 11.9824 82.5794 13.0384 82.0839 14.0178C81.5883 14.9853 80.9748 15.8407 80.2432 16.584C80.0898 16.7374 79.8951 16.82 79.6592 16.8318C79.435 16.8436 79.2403 16.7728 79.0751 16.6194Z" fill="white"/>
<path d="M89.2164 16.7787C89.0158 16.6725 88.886 16.5133 88.827 16.3009C88.7798 16.1003 88.8152 15.9056 88.9332 15.7168C89.1102 15.4336 89.3049 15.0856 89.5172 14.6726C89.7296 14.2478 89.942 13.8054 90.1544 13.3452C90.3786 12.8733 90.5791 12.4249 90.7561 12.0001C90.9449 11.5754 91.0924 11.2214 91.1986 10.9382C91.2812 10.7376 91.411 10.5902 91.588 10.4958C91.7767 10.4014 91.9773 10.4014 92.1897 10.4958C92.3313 10.5548 92.4493 10.6432 92.5437 10.7612C92.5673 10.5253 92.6971 10.3247 92.933 10.1595C93.6882 9.67573 94.3371 9.16837 94.8799 8.63742C95.4226 8.09466 95.8769 7.51651 96.2427 6.90296H93.4463C93.2575 6.90296 93.0923 6.83807 92.9507 6.70828C92.821 6.56669 92.7561 6.40151 92.7561 6.21272C92.7561 6.01214 92.821 5.84695 92.9507 5.71716C93.0923 5.57558 93.2575 5.50478 93.4463 5.50478H96.9329C97.1689 4.91483 97.3636 4.29538 97.517 3.64644C97.0096 3.69363 96.5022 3.72903 95.9949 3.75263C95.4875 3.77623 94.9979 3.79393 94.5259 3.80573C94.2663 3.80573 94.0599 3.75263 93.9065 3.64644C93.7531 3.52845 93.6646 3.35146 93.641 3.11548C93.6292 2.9149 93.6941 2.74381 93.8357 2.60223C93.9891 2.46064 94.2014 2.38984 94.4728 2.38984C95.2869 2.38984 96.1601 2.35445 97.0922 2.28365C98.0361 2.20106 98.9564 2.09487 99.8532 1.96508C100.75 1.83529 101.529 1.6937 102.189 1.54032C102.425 1.48132 102.626 1.49312 102.791 1.57571C102.968 1.65831 103.08 1.79989 103.127 2.00048C103.257 2.49604 103.074 2.79691 102.579 2.9031C102.071 3.02109 101.517 3.12728 100.915 3.22167C100.313 3.31607 99.688 3.40456 99.039 3.48715C98.9682 3.84112 98.8856 4.18919 98.7913 4.53136C98.7087 4.86174 98.6084 5.18621 98.4904 5.50478H104.101C104.301 5.50478 104.467 5.57558 104.596 5.71716C104.726 5.84695 104.791 6.01214 104.791 6.21272C104.791 6.40151 104.726 6.56669 104.596 6.70828C104.467 6.83807 104.301 6.90296 104.101 6.90296H100.685C101.204 7.50471 101.812 8.07697 102.508 8.61972C103.204 9.15067 103.942 9.61084 104.72 10.0002C104.909 10.0946 105.033 10.2421 105.092 10.4427C105.151 10.6432 105.133 10.8379 105.039 11.0267C104.921 11.2627 104.738 11.4043 104.49 11.4515C104.242 11.4987 104.018 11.4633 103.818 11.3453C103.239 11.0267 102.638 10.6197 102.012 10.1241C101.399 9.62853 100.827 9.09758 100.296 8.53123C99.7647 7.96487 99.334 7.42212 99.0036 6.90296H97.924C97.4875 7.78789 96.9388 8.60202 96.2781 9.34536C95.6173 10.0887 94.815 10.773 93.8711 11.3984C93.6823 11.5282 93.4699 11.5813 93.2339 11.5577C92.9979 11.5341 92.8151 11.4279 92.6853 11.2391C92.6735 11.2745 92.6617 11.3158 92.6499 11.363C92.6499 11.3984 92.6381 11.4397 92.6145 11.4869C92.4965 11.8172 92.3431 12.2066 92.1543 12.655C91.9655 13.1033 91.7649 13.5635 91.5526 14.0355C91.3402 14.4956 91.1337 14.9381 90.9331 15.3629C90.7325 15.7758 90.5555 16.1239 90.4022 16.4071C90.2842 16.6312 90.1072 16.7787 89.8712 16.8495C89.647 16.9203 89.4287 16.8967 89.2164 16.7787ZM95.9064 17.4513C95.6704 17.4513 95.4698 17.3746 95.3046 17.2212C95.1513 17.0678 95.0687 16.879 95.0569 16.6548C95.0451 16.4543 95.1159 16.2655 95.2692 16.0885C95.4226 15.9233 95.6114 15.8348 95.8356 15.823C96.2958 15.7758 96.5848 15.705 96.7028 15.6106C96.8208 15.5162 96.8798 15.2921 96.8798 14.9381V10.4073C96.8798 10.1831 96.9506 9.9943 97.0922 9.84092C97.2456 9.68753 97.4344 9.61084 97.6585 9.61084C97.8709 9.61084 98.0538 9.68753 98.2072 9.84092C98.3606 9.9943 98.4373 10.1831 98.4373 10.4073V15.1328C98.4373 15.9587 98.2485 16.5487 97.8709 16.9026C97.5052 17.2684 96.8503 17.4513 95.9064 17.4513ZM93.3224 16.177C93.1336 16.0826 93.0038 15.9351 92.933 15.7345C92.8623 15.5221 92.8858 15.3216 93.0038 15.1328C93.287 14.6608 93.5643 14.1181 93.8357 13.5045C94.1188 12.891 94.343 12.3482 94.5082 11.8762C94.5908 11.6639 94.7206 11.5164 94.8976 11.4338C95.0864 11.3394 95.281 11.3276 95.4816 11.3984C95.6822 11.481 95.8297 11.6108 95.9241 11.7878C96.0185 11.9529 96.0303 12.1476 95.9595 12.3718C95.7707 12.95 95.5406 13.5458 95.2692 14.1594C95.0097 14.7729 94.7383 15.3216 94.4551 15.8053C94.3371 15.9941 94.166 16.1239 93.9419 16.1947C93.7295 16.2773 93.523 16.2714 93.3224 16.177ZM104.402 15.8053C104.177 15.8997 103.965 15.9174 103.765 15.8584C103.576 15.7876 103.434 15.6578 103.34 15.469C103.104 15.0089 102.85 14.5015 102.579 13.947C102.307 13.3806 102.03 12.8733 101.747 12.4249C101.629 12.2479 101.594 12.0591 101.641 11.8585C101.688 11.658 101.806 11.5105 101.995 11.4161C102.183 11.3217 102.372 11.2922 102.561 11.3276C102.75 11.3512 102.903 11.4633 103.021 11.6639C103.363 12.1712 103.676 12.7022 103.959 13.2567C104.254 13.7995 104.52 14.3127 104.756 14.7965C104.85 14.9853 104.862 15.18 104.791 15.3805C104.72 15.5693 104.59 15.7109 104.402 15.8053ZM101.375 16.0708C101.175 16.1534 100.974 16.1593 100.773 16.0885C100.585 16.0295 100.449 15.8879 100.366 15.6637C100.213 15.2154 100.036 14.7257 99.8355 14.1947C99.6349 13.6638 99.4284 13.1682 99.216 12.7081C99.1334 12.5075 99.1334 12.3246 99.216 12.1594C99.2986 11.9824 99.4402 11.8526 99.6408 11.7701C100.054 11.6049 100.366 11.7347 100.579 12.1594C100.779 12.5606 100.998 13.0384 101.234 13.593C101.47 14.1476 101.664 14.649 101.818 15.0974C101.912 15.3216 101.912 15.5221 101.818 15.6991C101.723 15.8761 101.576 16 101.375 16.0708ZM91.1101 8.44273C90.9685 8.32474 90.7738 8.18906 90.526 8.03567C90.2783 7.87048 90.0305 7.7112 89.7827 7.55781C89.5349 7.39262 89.3167 7.25693 89.1279 7.15074C88.9627 7.04455 88.8506 6.89117 88.7916 6.69058C88.7326 6.49 88.7562 6.30121 88.8624 6.12423C88.9686 5.92365 89.122 5.79976 89.3225 5.75256C89.5349 5.70537 89.7355 5.72896 89.9243 5.82335C90.1131 5.91775 90.3432 6.05344 90.6145 6.23042C90.8859 6.39561 91.1514 6.56079 91.411 6.72598C91.6706 6.89116 91.8711 7.02685 92.0127 7.13304C92.1897 7.27463 92.2959 7.45162 92.3313 7.664C92.3785 7.87638 92.3372 8.07107 92.2074 8.24805C92.0776 8.43683 91.9006 8.54893 91.6765 8.58432C91.4641 8.61972 91.2753 8.57252 91.1101 8.44273ZM91.8711 4.51367C91.7059 4.38388 91.4995 4.24229 91.2517 4.0889C91.0039 3.92372 90.7561 3.76443 90.5083 3.61104C90.2724 3.44586 90.0659 3.31607 89.8889 3.22167C89.7119 3.11548 89.5939 2.9621 89.5349 2.76151C89.4877 2.56093 89.5113 2.37215 89.6057 2.19516C89.7237 1.99458 89.883 1.87069 90.0836 1.82349C90.296 1.7763 90.4965 1.80579 90.6853 1.91198C90.8741 2.00638 91.0983 2.13617 91.3579 2.30135C91.6293 2.46654 91.8888 2.63172 92.1366 2.79691C92.3962 2.9503 92.6027 3.08599 92.7561 3.20398C92.9448 3.33377 93.0569 3.51075 93.0923 3.73493C93.1277 3.94731 93.0805 4.1479 92.9507 4.33668C92.821 4.51367 92.6499 4.61986 92.4375 4.65525C92.2251 4.69065 92.0363 4.64345 91.8711 4.51367Z" fill="white"/>
<path d="M114.791 17.1327C114.614 17.2861 114.413 17.351 114.189 17.3274C113.965 17.3156 113.776 17.2271 113.623 17.0619C113.469 16.8967 113.398 16.6961 113.41 16.4602C113.434 16.236 113.528 16.0472 113.693 15.8938C114.637 15.0561 115.363 14.1063 115.87 13.0443C116.378 11.9824 116.631 10.832 116.631 9.59314C116.631 8.74361 116.401 8.10056 115.941 7.664C115.481 7.21564 114.867 6.99146 114.1 6.99146C113.558 6.99146 113.009 7.11535 112.454 7.36312C111.9 7.6109 111.363 7.96487 110.844 8.42504C110.679 8.57842 110.484 8.64922 110.26 8.63742C110.036 8.61382 109.853 8.51943 109.711 8.35424C109.558 8.18906 109.487 8.00027 109.499 7.78789C109.522 7.56371 109.617 7.37492 109.782 7.22154C110.455 6.63159 111.157 6.18912 111.888 5.89415C112.631 5.59917 113.363 5.45169 114.083 5.45169C114.873 5.45169 115.575 5.61097 116.189 5.92955C116.814 6.23632 117.31 6.69648 117.676 7.31003C118.041 7.92358 118.224 8.68461 118.224 9.59314C118.224 11.0208 117.923 12.3954 117.322 13.7169C116.732 15.0266 115.888 16.1652 114.791 17.1327ZM116.366 4.49597C115.835 4.36618 115.286 4.21279 114.72 4.0358C114.154 3.84702 113.611 3.64644 113.092 3.43406C112.572 3.22167 112.106 3.01519 111.693 2.81461C111.505 2.72022 111.375 2.56683 111.304 2.35445C111.233 2.14207 111.245 1.94148 111.339 1.7527C111.434 1.55211 111.587 1.41643 111.8 1.34563C112.012 1.27484 112.219 1.29254 112.419 1.39873C112.419 1.39873 112.567 1.46362 112.862 1.59341C113.168 1.7114 113.552 1.85889 114.012 2.03587C114.472 2.21286 114.95 2.38394 115.446 2.54913C115.941 2.71432 116.384 2.84411 116.773 2.9385C116.985 2.98569 117.145 3.10958 117.251 3.31017C117.369 3.49895 117.398 3.69953 117.339 3.91192C117.292 4.1361 117.168 4.30128 116.968 4.40747C116.779 4.51367 116.578 4.54316 116.366 4.49597Z" fill="white"/>
<path d="M128.029 16.7079C127.852 16.8377 127.652 16.8849 127.427 16.8495C127.203 16.8259 127.02 16.7256 126.879 16.5487C126.69 16.3127 126.43 16.0236 126.1 15.6814C125.781 15.3393 125.457 15.003 125.127 14.6726C124.796 14.3422 124.519 14.0886 124.295 13.9116C124.13 13.77 124.029 13.5871 123.994 13.3629C123.959 13.1387 124.012 12.95 124.153 12.7966C124.318 12.6196 124.507 12.5252 124.72 12.5134C124.932 12.5016 125.127 12.5606 125.304 12.6904C125.563 12.9028 125.876 13.1859 126.242 13.5399C126.607 13.8821 126.967 14.236 127.321 14.6018C127.675 14.9676 127.958 15.2862 128.171 15.5575C128.324 15.7345 128.383 15.9351 128.348 16.1593C128.312 16.3835 128.206 16.5664 128.029 16.7079Z" fill="white"/>
<path d="M141.763 17.3097C141.504 17.3569 141.279 17.3333 141.091 17.2389C140.902 17.1563 140.778 16.997 140.719 16.761C140.672 16.5487 140.701 16.354 140.807 16.177C140.925 16 141.097 15.8938 141.321 15.8584C142.713 15.6342 143.875 15.1741 144.807 14.4779C145.739 13.77 146.3 12.8497 146.489 11.717C145.816 11.6462 145.291 11.4987 144.914 11.2745C144.536 11.0385 144.271 10.6963 144.117 10.248C143.964 9.79962 143.887 9.21557 143.887 8.49583V4.99152C143.887 4.142 143.999 3.48125 144.223 3.00929C144.447 2.52553 144.843 2.18926 145.409 2.00048C145.987 1.79989 146.801 1.6996 147.852 1.6996H149.958C151.008 1.6996 151.816 1.79989 152.382 2.00048C152.96 2.18926 153.356 2.52553 153.568 3.00929C153.792 3.48125 153.904 4.142 153.904 4.99152V8.49583C153.904 9.20377 153.828 9.78192 153.674 10.2303C153.533 10.6786 153.273 11.0208 152.896 11.2568C152.53 11.481 152.005 11.6344 151.32 11.717V14.2301C151.32 14.7021 151.456 15.0266 151.727 15.2036C152.011 15.3805 152.565 15.469 153.391 15.469C154.134 15.469 154.66 15.3628 154.966 15.1505C155.273 14.9381 155.491 14.5369 155.621 13.947C155.68 13.711 155.81 13.534 156.011 13.416C156.223 13.298 156.459 13.2744 156.718 13.3452C156.954 13.416 157.12 13.5458 157.214 13.7346C157.32 13.9116 157.35 14.124 157.303 14.3717C157.114 15.41 156.701 16.118 156.064 16.4956C155.426 16.8731 154.53 17.0619 153.373 17.0619C152.477 17.0619 151.757 16.9793 151.214 16.8141C150.671 16.6489 150.276 16.3717 150.028 15.9823C149.792 15.5929 149.674 15.0679 149.674 14.4071V11.7878H148.099C147.922 13.2154 147.279 14.413 146.17 15.3805C145.061 16.3481 143.592 16.9911 141.763 17.3097ZM145.568 7.46932H152.205V6.00034H145.568V7.46932ZM147.852 10.3365H149.958C150.571 10.3365 151.037 10.2952 151.356 10.2126C151.674 10.13 151.893 9.97661 152.011 9.75242C152.129 9.52824 152.194 9.20377 152.205 8.77901H145.586C145.598 9.20377 145.663 9.52824 145.781 9.75242C145.899 9.97661 146.117 10.13 146.436 10.2126C146.766 10.2952 147.238 10.3365 147.852 10.3365ZM145.586 4.69065H152.205C152.194 4.26589 152.129 3.94141 152.011 3.71723C151.893 3.49305 151.674 3.34556 151.356 3.27477C151.037 3.19218 150.571 3.15088 149.958 3.15088H147.852C147.25 3.15088 146.784 3.19218 146.453 3.27477C146.135 3.34556 145.911 3.49305 145.781 3.71723C145.663 3.94141 145.598 4.26589 145.586 4.69065Z" fill="white"/>
<path d="M166.7 17.4513C166.405 17.4513 166.181 17.3687 166.028 17.2035C165.886 17.0383 165.804 16.8377 165.78 16.6017C165.768 16.3422 165.845 16.1357 166.01 15.9823C166.175 15.8171 166.382 15.7286 166.63 15.7168C167.09 15.6932 167.432 15.6519 167.656 15.5929C167.892 15.5221 168.051 15.4041 168.134 15.239C168.217 15.062 168.258 14.8142 168.258 14.4956V10.0179H158.931C158.707 10.0179 158.524 9.94121 158.382 9.78782C158.241 9.63443 158.17 9.45745 158.17 9.25687C158.17 9.04448 158.241 8.8616 158.382 8.70821C158.524 8.55483 158.707 8.47813 158.931 8.47813H168.258V6.4428C168.258 6.17143 168.34 5.97084 168.506 5.84105C168.683 5.69947 168.883 5.62867 169.107 5.62867C169.343 5.62867 169.538 5.69947 169.691 5.84105C169.857 5.97084 169.939 6.17143 169.939 6.4428V8.47813H173.638C173.874 8.47813 174.063 8.55483 174.205 8.70821C174.346 8.8616 174.417 9.04448 174.417 9.25687C174.417 9.45745 174.346 9.63443 174.205 9.78782C174.063 9.94121 173.874 10.0179 173.638 10.0179H169.939V14.7434C169.939 15.4041 169.845 15.9292 169.656 16.3186C169.467 16.7197 169.137 17.0088 168.665 17.1858C168.193 17.3628 167.538 17.4513 166.7 17.4513ZM159.603 7.6817C159.379 7.6817 159.184 7.6109 159.019 7.46932C158.854 7.31593 158.771 7.11535 158.771 6.86757V5.89415C158.771 4.99742 158.99 4.36618 159.426 4.00041C159.863 3.62284 160.606 3.43406 161.656 3.43406H165.338V1.98278C165.338 1.7114 165.426 1.50492 165.603 1.36333C165.78 1.20994 165.992 1.13325 166.24 1.13325C166.488 1.13325 166.695 1.20994 166.86 1.36333C167.037 1.50492 167.125 1.7114 167.125 1.98278V3.43406H170.895C171.957 3.43406 172.7 3.62284 173.125 4.00041C173.562 4.36618 173.78 4.99742 173.78 5.89415V6.86757C173.78 7.11535 173.697 7.31593 173.532 7.46932C173.379 7.6109 173.184 7.6817 172.948 7.6817C172.724 7.6817 172.529 7.6168 172.364 7.48701C172.199 7.34543 172.116 7.15074 172.116 6.90296V5.98264C172.116 5.58148 172.016 5.2983 171.815 5.13311C171.615 4.96793 171.249 4.88533 170.718 4.88533H161.833C161.302 4.88533 160.937 4.96793 160.736 5.13311C160.535 5.2983 160.435 5.58148 160.435 5.98264V6.90296C160.435 7.15074 160.353 7.34543 160.187 7.48701C160.034 7.6168 159.839 7.6817 159.603 7.6817ZM164.86 14.4071C164.636 14.5487 164.406 14.5959 164.17 14.5487C163.934 14.5015 163.751 14.3776 163.621 14.1771C163.491 13.9765 163.332 13.7405 163.143 13.4691C162.966 13.1977 162.783 12.9264 162.594 12.655C162.406 12.3836 162.234 12.1535 162.081 11.9647C161.94 11.776 161.892 11.5754 161.94 11.363C161.987 11.1506 162.105 10.9795 162.293 10.8497C162.494 10.7081 162.701 10.655 162.913 10.6904C163.137 10.7258 163.326 10.832 163.479 11.009C163.633 11.1742 163.81 11.3925 164.01 11.6639C164.223 11.9234 164.423 12.1889 164.612 12.4603C164.813 12.7317 164.978 12.9736 165.108 13.1859C165.237 13.3983 165.279 13.6225 165.231 13.8585C165.196 14.0827 165.072 14.2655 164.86 14.4071Z" fill="white"/>
<path d="M183.142 16.6194C182.977 16.4661 182.889 16.2714 182.877 16.0354C182.877 15.7994 182.954 15.6047 183.107 15.4513C183.673 14.9086 184.175 14.2242 184.611 13.3983C185.06 12.5724 185.408 11.6462 185.656 10.6197C185.903 9.58134 186.027 8.49583 186.027 7.36312C186.027 6.38381 185.874 5.65817 185.567 5.18621C185.272 4.71425 184.782 4.47827 184.098 4.47827C183.626 4.47827 183.166 4.70245 182.718 5.15081C182.269 5.59917 181.921 6.23042 181.673 7.04455C181.437 7.85868 181.372 8.8144 181.479 9.91171C181.502 10.1123 181.443 10.2893 181.302 10.4427C181.172 10.5961 181.007 10.6845 180.806 10.7081C180.617 10.7199 180.44 10.6668 180.275 10.5489C180.11 10.4191 180.016 10.2598 179.992 10.071C179.909 9.50464 179.856 8.8616 179.833 8.14186C179.821 7.42212 179.821 6.69648 179.833 5.96494C179.856 5.22161 179.886 4.52546 179.921 3.87652C179.968 3.22757 180.016 2.69072 180.063 2.26595C180.086 2.05357 180.181 1.88249 180.346 1.7527C180.523 1.62291 180.718 1.56981 180.93 1.59341C181.142 1.60521 181.313 1.6996 181.443 1.87659C181.585 2.04177 181.638 2.23056 181.603 2.44294C181.567 2.73791 181.526 3.10368 181.479 3.54025C181.431 3.97681 181.396 4.41927 181.372 4.86764C181.715 4.25409 182.128 3.77033 182.611 3.41636C183.107 3.05059 183.626 2.8677 184.169 2.8677C185.29 2.8677 186.145 3.25117 186.735 4.01811C187.337 4.77324 187.638 5.88825 187.638 7.36312C187.638 8.55482 187.514 9.71703 187.266 10.8497C187.018 11.9824 186.647 13.0384 186.151 14.0178C185.656 14.9853 185.042 15.8407 184.31 16.584C184.157 16.7374 183.962 16.82 183.726 16.8318C183.502 16.8436 183.308 16.7728 183.142 16.6194Z" fill="white"/>
<path d="M197.602 16.6371C197.425 16.7669 197.224 16.8141 197 16.7787C196.776 16.7551 196.599 16.6489 196.469 16.4602C196.328 16.2832 196.275 16.0826 196.31 15.8584C196.345 15.6342 196.452 15.4572 196.629 15.3275C197.49 14.6903 198.192 13.9234 198.735 13.0266C199.277 12.1299 199.643 11.1565 199.832 10.1064C200.021 9.04448 200.015 7.95898 199.814 6.84987C199.767 6.62569 199.808 6.4251 199.938 6.24812C200.068 6.05933 200.245 5.94724 200.469 5.91185C200.693 5.86465 200.894 5.90595 201.071 6.03574C201.26 6.16553 201.378 6.34251 201.425 6.56669L201.531 7.31003C202.664 7.25104 203.537 7.15074 204.15 7.00916C204.776 6.86757 205.206 6.70238 205.442 6.5136C205.678 6.32481 205.796 6.13013 205.796 5.92955C205.796 5.62277 205.702 5.39269 205.513 5.2393C205.336 5.07412 204.947 4.99152 204.345 4.99152H194.894C194.67 4.99152 194.475 4.91483 194.31 4.76144C194.157 4.59626 194.08 4.40157 194.08 4.17739C194.08 3.94141 194.157 3.74673 194.31 3.59334C194.475 3.42816 194.67 3.34556 194.894 3.34556H204.345C206.445 3.34556 207.495 4.17739 207.495 5.84105C207.495 6.53719 207.277 7.09765 206.841 7.52241C206.416 7.93538 205.767 8.24215 204.894 8.44273C204.021 8.64332 202.912 8.77901 201.566 8.8498C201.531 9.87631 201.348 10.8733 201.018 11.8408C200.687 12.8084 200.233 13.7051 199.655 14.531C199.077 15.3452 198.393 16.0472 197.602 16.6371Z" fill="white"/>
<path d="M214.628 16.1593C214.427 16.2419 214.221 16.2419 214.009 16.1593C213.796 16.0885 213.643 15.9469 213.548 15.7345C213.454 15.5339 213.448 15.3275 213.531 15.1151C213.613 14.9027 213.755 14.7493 213.955 14.6549C215.831 13.8172 217.424 12.7966 218.734 11.5931C220.056 10.3778 221.005 9.05628 221.583 7.6286C221.843 7.00326 221.878 6.5136 221.69 6.15963C221.513 5.79386 221.047 5.61097 220.291 5.61097H213.442C213.218 5.61097 213.023 5.53428 212.858 5.38089C212.705 5.21571 212.628 5.02102 212.628 4.79684C212.628 4.56086 212.705 4.36618 212.858 4.21279C213.023 4.04761 213.218 3.96501 213.442 3.96501H220.291C221.247 3.96501 221.985 4.1479 222.504 4.51367C223.035 4.87943 223.353 5.38089 223.46 6.01804C223.566 6.65518 223.448 7.39262 223.106 8.23035C222.445 9.85861 221.383 11.3571 219.92 12.7258C218.469 14.0827 216.705 15.2272 214.628 16.1593ZM225.619 5.77026C225.147 5.77026 224.74 5.59917 224.398 5.257C224.055 4.91483 223.884 4.50777 223.884 4.0358C223.884 3.55205 224.055 3.14498 224.398 2.81461C224.74 2.47244 225.147 2.30135 225.619 2.30135C226.103 2.30135 226.51 2.47244 226.84 2.81461C227.182 3.14498 227.353 3.55205 227.353 4.0358C227.353 4.50777 227.182 4.91483 226.84 5.257C226.51 5.59917 226.103 5.77026 225.619 5.77026ZM225.619 4.90303C225.855 4.90303 226.055 4.82044 226.22 4.65525C226.397 4.47827 226.486 4.27179 226.486 4.0358C226.486 3.78803 226.397 3.58154 226.22 3.41636C226.055 3.23937 225.855 3.15088 225.619 3.15088C225.371 3.15088 225.159 3.23937 224.982 3.41636C224.816 3.58154 224.734 3.78803 224.734 4.0358C224.734 4.27179 224.816 4.47827 224.982 4.65525C225.159 4.82044 225.371 4.90303 225.619 4.90303Z" fill="white"/>
<path d="M234.203 16.5133C234.014 16.6312 233.807 16.6548 233.583 16.584C233.371 16.5251 233.206 16.3953 233.088 16.1947C232.981 15.9941 232.958 15.7876 233.017 15.5752C233.088 15.3629 233.223 15.1977 233.424 15.0797C234.167 14.6667 234.792 14.2124 235.3 13.7169C235.819 13.2095 236.232 12.6255 236.539 11.9647C236.846 11.2922 237.064 10.5076 237.194 9.61084C237.335 8.70231 237.406 7.6404 237.406 6.4251C237.406 5.90595 237.4 5.37499 237.388 4.83224C237.376 4.27769 237.341 3.81162 237.282 3.43406C237.247 3.20988 237.3 3.00929 237.441 2.83231C237.583 2.65532 237.766 2.54913 237.99 2.51373C238.214 2.49014 238.415 2.54913 238.592 2.69072C238.769 2.82051 238.869 2.99749 238.893 3.22167C238.94 3.48125 238.969 3.79393 238.981 4.1597C239.005 4.52546 239.017 4.89123 239.017 5.257C239.017 5.62277 239.017 5.94134 239.017 6.21272C239.017 6.30711 239.017 6.37791 239.017 6.4251C239.017 7.72299 238.94 8.8793 238.786 9.89401C238.633 10.9087 238.373 11.8172 238.008 12.6196C237.642 13.4101 237.146 14.124 236.521 14.7611C235.907 15.3982 235.135 15.9823 234.203 16.5133ZM232.716 10.6373C232.492 10.6138 232.309 10.5194 232.167 10.3542C232.026 10.189 231.961 9.9943 231.973 9.77012C231.984 9.46335 231.984 9.04448 231.973 8.51353C231.961 7.98257 231.937 7.42212 231.902 6.83217C231.878 6.23042 231.843 5.66997 231.796 5.15081C231.76 4.63166 231.725 4.24229 231.689 3.98271C231.654 3.75853 231.695 3.55205 231.813 3.36326C231.931 3.17448 232.108 3.06239 232.344 3.02699C232.568 2.99159 232.775 3.03289 232.964 3.15088C233.164 3.26887 233.276 3.44586 233.3 3.68184C233.335 4.01221 233.377 4.46057 233.424 5.02692C233.471 5.58148 233.512 6.17143 233.548 6.79677C233.583 7.42212 233.607 8.01207 233.618 8.56662C233.642 9.10938 233.642 9.54004 233.618 9.85861C233.607 10.1182 233.512 10.3188 233.335 10.4604C233.158 10.5902 232.952 10.6491 232.716 10.6373Z" fill="white"/>
</svg>
